<svg viewBox="0 0 24 24">
  <defs>
    <svg id="logo" viewBox="0 0 32 32">
      <style type="text/css">
        .st0{fill:#BBDEFB;}
        .st2{fill:#212121;}
      </style>
      <path class="st0" d="M7.5,15l-0.4,7.4l9.4,4.1l8.6-4.1L24.8,15l-8.2,2.6c-0.3,0.1-0.2,0.1-0.5,0h-0.5L7.5,15z"/>
      <polygon points="3.4,11.7 16.3,17.3 29.5,11.6 16.1,6.4 "/>
      <path class="st2" d="M17.4,7.7c0.4,0.1,0.6,0.6,0.5,1l-2.2,6.1c-0.1,0.4-0.6,0.6-1,0.5c-0.4-0.1-0.6-0.6-0.5-1l2.2-6.1
        C16.5,7.8,17,7.6,17.4,7.7z M13.2,9.7c0.1,0.4-0.1,0.8-0.5,1l-2.2,0.8l2.2,0.8c0.4,0.1,0.6,0.6,0.5,1c-0.1,0.4-0.6,0.6-1,0.5
        l-3.5-1.3c-0.9-0.3-0.9-1.6,0-1.9l3.5-1.3C12.6,9.1,13.1,9.3,13.2,9.7z M18.7,9.7c0.1-0.4,0.6-0.6,1-0.5l4.1,1.3
        c0.9,0.3,0.9,1.6,0,1.9l-4.1,1.3c-0.4,0.1-0.8-0.1-1-0.5c-0.1-0.4,0.1-0.8,0.5-1l2.5-0.8l-2.5-0.8C18.8,10.6,18.6,10.2,18.7,9.7z"/>
      <path class="st2" d="M31.8,11.7c0-0.6-0.4-1.1-0.9-1.3L16.6,5c-0.3-0.1-0.7-0.1-1,0L1.4,10.4c-0.5,0.2-0.9,0.7-0.9,1.3
        s0.4,1.1,0.9,1.3l4.2,1.6v8.3c0,0.6,0.3,1.1,0.9,1.3l9.2,3.7c0.3,0.1,0.7,0.1,1,0l9.2-3.7c0.5-0.2,0.9-0.7,0.9-1.3v-8.3l3-1.1V19
        c0,0.6,0.5,1.1,1.1,1.1s1.1-0.5,1.1-1.1L31.8,11.7C31.8,11.7,31.8,11.7,31.8,11.7z M24.5,22.3l-8.4,3.4l-8.4-3.4v-6.9l7.9,3v0
        c0.3,0.1,0.7,0.1,1,0l7.9-3V22.3z M16.1,16.2L4.1,11.7l12.1-4.5l12.1,4.5L16.1,16.2z"/>
    </svg>
    <svg id="logo-text" viewBox="0 0 213 35">
      <path d="M11.3528 7.02031C11.3528 6.06875 11.4922 5.20742 11.7711 4.43633C12.05 3.65976 12.4465 3.00078 12.9606 2.45937C13.4801 1.91797 14.1008 1.50234 14.8227 1.2125C15.5446 0.917187 16.3485 0.769531 17.2344 0.769531C18.1204 0.769531 18.9243 0.919922 19.6461 1.2207C20.368 1.51602 20.986 1.93437 21.5 2.47578C22.0141 3.01719 22.4106 3.67344 22.6895 4.44453C22.9739 5.21016 23.1161 6.06875 23.1161 7.02031C23.1161 7.95 22.9766 8.79766 22.6977 9.56328C22.4243 10.3289 22.0333 10.9879 21.5247 11.5402C21.0161 12.0871 20.4008 12.5137 19.679 12.8199C18.9571 13.1207 18.1422 13.2711 17.2344 13.2711C16.3485 13.2711 15.5446 13.1234 14.8227 12.8281C14.1008 12.5273 13.4801 12.1035 12.9606 11.5566C12.4465 11.0098 12.05 10.3535 11.7711 9.58789C11.4922 8.8168 11.3528 7.96094 11.3528 7.02031ZM14.2731 7.02031C14.2731 7.57813 14.3415 8.08399 14.4782 8.53789C14.6149 8.9918 14.8118 9.38555 15.0688 9.71914C15.3258 10.0473 15.6348 10.3016 15.9958 10.482C16.3622 10.6625 16.775 10.7527 17.2344 10.7527C17.7047 10.7527 18.1231 10.6598 18.4895 10.4738C18.8614 10.2879 19.1731 10.0309 19.4247 9.70273C19.6762 9.36914 19.8649 8.97266 19.9907 8.51328C20.1219 8.05391 20.1875 7.55625 20.1875 7.02031C20.1875 6.48438 20.1219 5.98945 19.9907 5.53555C19.8649 5.08164 19.6762 4.68789 19.4247 4.3543C19.1731 4.01523 18.8614 3.75273 18.4895 3.5668C18.1231 3.38086 17.6993 3.28789 17.218 3.28789C16.7586 3.28789 16.3485 3.37812 15.9875 3.55859C15.6321 3.73906 15.3258 3.99609 15.0688 4.32969C14.8118 4.65781 14.6149 5.05156 14.4782 5.51094C14.3415 5.97031 14.2731 6.47344 14.2731 7.02031Z" />
      <path d="M23.7231 7.90625C23.7231 7.71484 23.7286 7.46875 23.7395 7.16797C23.7504 6.86719 23.7805 6.53359 23.8297 6.16719C23.879 5.79531 23.9583 5.39609 24.0676 4.96953C24.1825 4.54297 24.3465 4.11641 24.5598 3.68984C24.9043 2.98437 25.3965 2.4293 26.0364 2.02461C26.6762 1.61445 27.3653 1.35195 28.1036 1.23711L29.4981 1.04023C29.5965 1.0293 29.7086 1.01016 29.8344 0.982812C29.9602 0.955468 30.0805 0.925391 30.1954 0.892578C30.3157 0.854297 30.4305 0.824218 30.5399 0.802343C30.6547 0.780468 30.745 0.769531 30.8106 0.769531C31.1004 0.769531 31.3575 0.878906 31.5817 1.09766C31.8059 1.31641 31.918 1.62266 31.918 2.01641C31.918 2.74375 31.4696 3.16758 30.5727 3.28789C30.1352 3.34258 29.7551 3.3918 29.4325 3.43555C29.1098 3.47383 28.8528 3.50391 28.6614 3.52578C28.0543 3.59141 27.5786 3.77461 27.234 4.07539C26.895 4.3707 26.6872 4.73711 26.6106 5.17461H26.6598C26.9715 4.91758 27.3133 4.73164 27.6852 4.6168C28.0571 4.49648 28.4672 4.43633 28.9157 4.43633C29.4626 4.43633 29.9602 4.54023 30.4086 4.74805C30.8571 4.95039 31.2399 5.2375 31.5571 5.60938C31.8743 5.97578 32.1204 6.41875 32.2954 6.93828C32.4704 7.45234 32.5579 8.01836 32.5579 8.63633C32.5579 9.31992 32.454 9.94609 32.2461 10.5148C32.0383 11.0836 31.7403 11.573 31.352 11.9832C30.9692 12.3934 30.5043 12.7105 29.9575 12.9348C29.4161 13.159 28.809 13.2711 28.1364 13.2711C26.7145 13.2711 25.6235 12.8145 24.8633 11.9012C24.1032 10.9879 23.7231 9.65625 23.7231 7.90625ZM26.3399 8.78399C26.3399 9.36367 26.4958 9.85039 26.8075 10.2441C27.1247 10.6379 27.5676 10.8348 28.1364 10.8348C28.7051 10.8348 29.1454 10.6379 29.4571 10.2441C29.7743 9.85039 29.9329 9.36367 29.9329 8.78399C29.9329 8.17695 29.7715 7.6875 29.4489 7.31562C29.1262 6.93828 28.6833 6.74961 28.12 6.74961C27.584 6.74961 27.152 6.93828 26.8239 7.31562C26.5012 7.6875 26.3399 8.17695 26.3399 8.78399Z" />
      <path d="M32.5251 5.19102C32.5251 4.83008 32.6481 4.53477 32.8942 4.30508C33.1403 4.07539 33.4438 3.96055 33.8047 3.96055C33.9633 3.96055 34.1055 3.97148 34.2313 3.99336C34.3571 4.01523 34.4747 4.06992 34.584 4.15742C34.6989 4.23945 34.8055 4.35976 34.904 4.51836C35.0079 4.67148 35.1118 4.8793 35.2157 5.1418L36.6922 8.98906L38.1688 5.30586C38.3821 4.78086 38.5954 4.42539 38.8086 4.23945C39.0219 4.05351 39.279 3.96055 39.5797 3.96055C39.9844 3.96055 40.3098 4.08086 40.5559 4.32148C40.802 4.56211 40.9251 4.88477 40.9251 5.28945C40.9251 5.48086 40.8813 5.69414 40.7938 5.9293C40.7118 6.16445 40.5942 6.45977 40.4411 6.81524L37.3157 14.1078C37.1571 14.4797 36.9793 14.8215 36.7825 15.1332C36.5856 15.4449 36.3559 15.7184 36.0934 15.9535C35.8309 16.1887 35.5219 16.3773 35.1665 16.5195C34.8165 16.6617 34.4118 16.7328 33.9524 16.7328C33.4821 16.7328 33.154 16.6234 32.968 16.4047C32.7821 16.1859 32.6891 15.9125 32.6891 15.5844C32.6891 15.3055 32.7602 15.0812 32.9024 14.9117C33.0446 14.7477 33.3208 14.6191 33.7309 14.5262C33.9114 14.4824 34.0973 14.3813 34.2887 14.2227C34.4801 14.0695 34.6606 13.7852 34.8301 13.3695L35.3141 12.1637L33.1157 6.90547C33.0829 6.82891 33.0309 6.70859 32.9598 6.54453C32.8942 6.38047 32.8286 6.21367 32.7629 6.04414C32.7028 5.87461 32.6481 5.71328 32.5989 5.56016C32.5497 5.40156 32.5251 5.27852 32.5251 5.19102Z" />
      <path d="M41.2614 6.44609V5.35508C41.2614 4.95039 41.3817 4.6168 41.6223 4.3543C41.8629 4.0918 42.1801 3.96055 42.5739 3.96055C42.9458 3.96055 43.2547 4.08906 43.5008 4.34609C43.7524 4.60313 43.8782 4.95039 43.8782 5.38789V6.15899C43.8782 6.80977 44.0012 7.29375 44.2473 7.61094C44.4989 7.92266 44.909 8.07852 45.4778 8.07852H46.454V5.28945C46.454 4.92852 46.577 4.6168 46.8231 4.3543C47.0692 4.0918 47.3836 3.96055 47.7665 3.96055C48.1493 3.96055 48.461 4.0918 48.7016 4.3543C48.9477 4.6168 49.0708 4.92852 49.0708 5.28945V11.7699C49.0708 12.1309 48.9477 12.4426 48.7016 12.7051C48.4555 12.9676 48.1438 13.0988 47.7665 13.0988C47.3836 13.0988 47.0692 12.9676 46.8231 12.7051C46.577 12.4426 46.454 12.1309 46.454 11.7699V10.2934H44.9938C44.436 10.2934 43.9247 10.2113 43.4598 10.0473C43.0004 9.87773 42.6067 9.63164 42.2786 9.30898C41.9559 8.98086 41.7043 8.57891 41.5239 8.10312C41.3489 7.62734 41.2614 7.075 41.2614 6.44609Z"/>
      <path d="M49.9403 8.52969C49.9403 7.86797 50.0469 7.25 50.2602 6.67578C50.4735 6.09609 50.7606 5.5957 51.1215 5.17461C51.4879 4.74805 51.9172 4.41172 52.4094 4.16562C52.9016 3.91953 53.4266 3.79648 53.9844 3.79648C54.4876 3.79648 54.9141 3.87578 55.2641 4.03437C55.6196 4.1875 55.945 4.44453 56.2403 4.80547C56.4973 4.24766 56.9047 3.96602 57.4626 3.96055C57.8563 3.96055 58.1735 4.09453 58.4141 4.3625C58.6547 4.63047 58.7751 4.93945 58.7751 5.28945V11.7699C58.7751 12.1145 58.6547 12.4234 58.4141 12.6969C58.1735 12.9648 57.8563 13.0988 57.4626 13.0988C56.9047 13.0988 56.4973 12.8199 56.2403 12.2621C55.9504 12.623 55.6278 12.8801 55.2723 13.0332C54.9168 13.1918 54.4876 13.2711 53.9844 13.2711C53.4266 13.2711 52.9016 13.148 52.4094 12.902C51.9172 12.6559 51.4879 12.3195 51.1215 11.893C50.7606 11.4664 50.4735 10.966 50.2602 10.3918C50.0469 9.81211 49.9403 9.19141 49.9403 8.52969ZM52.5571 8.52969C52.5571 9.18047 52.7184 9.71367 53.0411 10.1293C53.3692 10.5449 53.8067 10.7527 54.3536 10.7527C54.9004 10.7527 55.3352 10.5449 55.6579 10.1293C55.986 9.71367 56.1501 9.18047 56.1501 8.52969C56.1501 7.88984 55.9915 7.36211 55.6743 6.94648C55.3571 6.52539 54.9114 6.31484 54.3372 6.31484C53.8012 6.31484 53.3692 6.52266 53.0411 6.93828C52.7184 7.34844 52.5571 7.87891 52.5571 8.52969Z"/>
      <path d="M59.9891 11.7699V5.27305C59.9891 4.91211 60.1122 4.60039 60.3583 4.33789C60.6044 4.07539 60.9161 3.94414 61.2934 3.94414C61.6762 3.94414 61.9907 4.07539 62.2368 4.33789C62.4829 4.60039 62.6059 4.91211 62.6059 5.27305V7.2582H63.6313C63.768 6.72227 63.9649 6.24102 64.2219 5.81445C64.479 5.38789 64.7852 5.02422 65.1407 4.72344C65.5016 4.41719 65.9036 4.1875 66.3465 4.03437C66.7895 3.87578 67.2626 3.79648 67.7657 3.79648C68.3946 3.79648 68.9688 3.9168 69.4883 4.15742C70.0079 4.39805 70.4536 4.73164 70.8254 5.1582C71.2028 5.5793 71.4954 6.07969 71.7032 6.65937C71.911 7.23359 72.0149 7.85703 72.0149 8.52969C72.0149 9.21328 71.9083 9.84492 71.695 10.4246C71.4817 10.9988 71.1864 11.4965 70.809 11.9176C70.4372 12.3387 69.9915 12.6695 69.4719 12.9102C68.9524 13.1508 68.3836 13.2711 67.7657 13.2711C67.2188 13.2711 66.7102 13.1781 66.2399 12.9922C65.7696 12.8062 65.3512 12.5437 64.9848 12.2047C64.6184 11.8602 64.3122 11.4527 64.0661 10.9824C63.82 10.5121 63.6532 9.99258 63.5657 9.42383H62.6059V11.7699C62.6059 12.1309 62.4829 12.4426 62.2368 12.7051C61.9907 12.9676 61.6762 13.0988 61.2934 13.0988C60.9106 13.0988 60.5961 12.9676 60.3501 12.7051C60.1094 12.4426 59.9891 12.1309 59.9891 11.7699ZM66.1169 8.52969C66.1169 9.16953 66.2645 9.7 66.5598 10.1211C66.8606 10.5422 67.2626 10.7527 67.7657 10.7527C68.2688 10.7527 68.6653 10.5449 68.9551 10.1293C69.2504 9.71367 69.3981 9.18047 69.3981 8.52969C69.3981 7.88984 69.2504 7.36211 68.9551 6.94648C68.6653 6.52539 68.2688 6.31484 67.7657 6.31484C67.2626 6.31484 66.8606 6.52539 66.5598 6.94648C66.2645 7.36211 66.1169 7.88984 66.1169 8.52969Z" />
      <path d="M72.868 11.8438V5.28945C72.868 4.92852 72.9883 4.6168 73.229 4.3543C73.4751 4.0918 73.7895 3.96055 74.1723 3.96055C74.5551 3.96055 74.8696 4.0918 75.1157 4.3543C75.3618 4.6168 75.4848 4.92852 75.4848 5.28945V10.5805H78.1098V5.28945C78.1098 4.92852 78.2329 4.6168 78.479 4.3543C78.7251 4.0918 79.0368 3.96055 79.4141 3.96055C79.7969 3.96055 80.1114 4.0918 80.3575 4.3543C80.6036 4.6168 80.7266 4.92852 80.7266 5.28945V10.5805H83.3516V5.28945C83.3516 4.92852 83.4747 4.6168 83.7208 4.3543C83.9669 4.0918 84.2786 3.96055 84.6559 3.96055C85.0387 3.96055 85.3532 4.0918 85.5993 4.3543C85.8454 4.6168 85.9684 4.92852 85.9684 5.28945V10.5805H86.1735C86.6875 10.5805 87.043 10.6898 87.2399 10.9086C87.4368 11.1273 87.5352 11.398 87.5352 11.7207V14.6C87.5352 14.9828 87.434 15.2891 87.2317 15.5188C87.0293 15.7539 86.7422 15.8715 86.3704 15.8715C86.0094 15.8715 85.725 15.7539 85.5172 15.5188C85.3149 15.2836 85.2137 14.9773 85.2137 14.6V13.0004H74.1969C73.8032 13.0004 73.4833 12.902 73.2372 12.7051C72.9911 12.5082 72.868 12.2211 72.868 11.8438Z"/>
      <path d="M87.9208 8.52969C87.9208 7.86797 88.0274 7.25 88.2407 6.67578C88.454 6.09609 88.7411 5.5957 89.102 5.17461C89.4684 4.74805 89.8977 4.41172 90.3899 4.16562C90.8821 3.91953 91.4071 3.79648 91.9649 3.79648C92.468 3.79648 92.8946 3.87578 93.2446 4.03437C93.6001 4.1875 93.9254 4.44453 94.2208 4.80547C94.4778 4.24766 94.8852 3.96602 95.443 3.96055C95.8368 3.96055 96.154 4.09453 96.3946 4.3625C96.6352 4.63047 96.7555 4.93945 96.7555 5.28945V11.7699C96.7555 12.1145 96.6352 12.4234 96.3946 12.6969C96.154 12.9648 95.8368 13.0988 95.443 13.0988C94.8852 13.0988 94.4778 12.8199 94.2208 12.2621C93.9309 12.623 93.6083 12.8801 93.2528 13.0332C92.8973 13.1918 92.468 13.2711 91.9649 13.2711C91.4071 13.2711 90.8821 13.148 90.3899 12.902C89.8977 12.6559 89.4684 12.3195 89.102 11.893C88.7411 11.4664 88.454 10.966 88.2407 10.3918C88.0274 9.81211 87.9208 9.19141 87.9208 8.52969ZM90.5376 8.52969C90.5376 9.18047 90.6989 9.71367 91.0215 10.1293C91.3497 10.5449 91.7872 10.7527 92.334 10.7527C92.8809 10.7527 93.3157 10.5449 93.6383 10.1293C93.9665 9.71367 94.1305 9.18047 94.1305 8.52969C94.1305 7.88984 93.9719 7.36211 93.6547 6.94648C93.3376 6.52539 92.8918 6.31484 92.3176 6.31484C91.7817 6.31484 91.3497 6.52266 91.0215 6.93828C90.6989 7.34844 90.5376 7.87891 90.5376 8.52969Z"/>
      <path d="M97.5676 11.975C97.5676 11.7508 97.6059 11.5648 97.6825 11.4172C97.759 11.2641 97.8711 11.1246 98.0188 10.9988L100.135 9.13672H100.07C99.3204 9.13672 98.7243 8.9207 98.2813 8.48867C97.8383 8.05664 97.6168 7.5043 97.6168 6.83164C97.6168 5.8582 97.9696 5.13359 98.675 4.65781C99.3805 4.18203 100.359 3.94414 101.612 3.94414H104.179C104.617 3.94414 104.961 4.07539 105.213 4.33789C105.47 4.60039 105.598 4.91211 105.598 5.27305V11.7699C105.598 12.1145 105.473 12.4234 105.221 12.6969C104.975 12.9648 104.663 13.0988 104.286 13.0988C103.903 13.0988 103.589 12.9648 103.343 12.6969C103.097 12.4289 102.973 12.1199 102.973 11.7699V9.6207L100.234 12.3441C99.9219 12.6559 99.6567 12.8609 99.4379 12.9594C99.2192 13.0523 99.0086 13.0988 98.8063 13.0988C98.4344 13.0988 98.1336 12.9867 97.904 12.7625C97.6797 12.5383 97.5676 12.2758 97.5676 11.975ZM100.234 6.84805C100.234 7.09414 100.327 7.28281 100.513 7.41406C100.698 7.54531 100.942 7.61094 101.243 7.61094H102.973V6.12617H101.21C100.931 6.12617 100.698 6.18633 100.513 6.30664C100.327 6.42148 100.234 6.60195 100.234 6.84805Z"/>
      <path d="M110.89 8.52969C110.89 7.84609 110.999 7.21719 111.218 6.64297C111.436 6.06328 111.74 5.56562 112.128 5.15C112.522 4.72891 112.99 4.39805 113.531 4.15742C114.072 3.9168 114.663 3.79648 115.303 3.79648C115.74 3.79648 116.145 3.83203 116.517 3.90312C116.894 3.97422 117.222 4.08086 117.501 4.22305C117.786 4.36523 118.007 4.5457 118.166 4.76445C118.33 4.97774 118.412 5.23203 118.412 5.52734C118.412 5.87188 118.311 6.16172 118.108 6.39688C117.906 6.63203 117.649 6.74961 117.337 6.74961C117.124 6.74961 116.941 6.71133 116.788 6.63477C116.563 6.53633 116.353 6.45977 116.156 6.40508C115.959 6.34492 115.732 6.31484 115.475 6.31484C114.835 6.31484 114.346 6.51719 114.007 6.92188C113.673 7.32109 113.506 7.85703 113.506 8.52969C113.506 9.16953 113.665 9.7 113.982 10.1211C114.305 10.5422 114.75 10.7527 115.319 10.7527C115.576 10.7527 115.811 10.7309 116.025 10.6871C116.238 10.6379 116.429 10.5832 116.599 10.523C116.768 10.4629 116.911 10.4109 117.025 10.3672C117.146 10.318 117.25 10.2934 117.337 10.2934C117.627 10.2934 117.879 10.4137 118.092 10.6543C118.305 10.8949 118.412 11.1629 118.412 11.4582C118.412 11.748 118.313 12.0051 118.116 12.2293C117.925 12.4535 117.673 12.6449 117.362 12.8035C117.056 12.9566 116.716 13.0715 116.345 13.148C115.978 13.2301 115.625 13.2711 115.286 13.2711C114.647 13.2711 114.059 13.1508 113.523 12.9102C112.987 12.6695 112.522 12.3387 112.128 11.9176C111.74 11.4965 111.436 10.9961 111.218 10.4164C110.999 9.83125 110.89 9.20234 110.89 8.52969Z" />
      <path d="M119.019 11.7699V5.32227C119.019 4.92852 119.139 4.60039 119.38 4.33789C119.626 4.07539 119.94 3.94414 120.323 3.94414C120.706 3.94414 121.02 4.07539 121.266 4.33789C121.513 4.60039 121.636 4.91211 121.636 5.27305V9.0875L124.49 5.10078C124.66 4.86562 124.813 4.67422 124.95 4.52656C125.092 4.37344 125.226 4.25586 125.352 4.17383C125.483 4.08633 125.614 4.02617 125.745 3.99336C125.877 3.96055 126.019 3.94414 126.172 3.94414C126.516 3.94414 126.798 4.07266 127.017 4.32969C127.241 4.58672 127.353 4.90117 127.353 5.27305V11.7699C127.353 12.1145 127.227 12.4234 126.976 12.6969C126.73 12.9648 126.418 13.0988 126.041 13.0988C125.658 13.0988 125.343 12.9648 125.097 12.6969C124.851 12.4289 124.728 12.1199 124.728 11.7699V8.14414L121.988 11.893C121.786 12.1609 121.611 12.377 121.463 12.541C121.321 12.6996 121.184 12.8227 121.053 12.9102C120.927 12.9922 120.802 13.0441 120.676 13.066C120.556 13.0879 120.422 13.0988 120.274 13.0988C119.858 13.0988 119.544 12.9703 119.331 12.7133C119.123 12.4563 119.019 12.1418 119.019 11.7699Z"/>
      <path d="M128.215 8.52969C128.215 7.84609 128.324 7.21719 128.543 6.64297C128.761 6.06328 129.065 5.56562 129.453 5.15C129.847 4.72891 130.315 4.39805 130.856 4.15742C131.397 3.9168 131.988 3.79648 132.628 3.79648C133.065 3.79648 133.47 3.83203 133.842 3.90312C134.219 3.97422 134.547 4.08086 134.826 4.22305C135.111 4.36523 135.332 4.5457 135.491 4.76445C135.655 4.97774 135.737 5.23203 135.737 5.52734C135.737 5.87188 135.636 6.16172 135.433 6.39688C135.231 6.63203 134.974 6.74961 134.662 6.74961C134.449 6.74961 134.266 6.71133 134.113 6.63477C133.888 6.53633 133.678 6.45977 133.481 6.40508C133.284 6.34492 133.057 6.31484 132.8 6.31484C132.16 6.31484 131.671 6.51719 131.332 6.92188C130.998 7.32109 130.831 7.85703 130.831 8.52969C130.831 9.16953 130.99 9.7 131.307 10.1211C131.63 10.5422 132.075 10.7527 132.644 10.7527C132.901 10.7527 133.136 10.7309 133.35 10.6871C133.563 10.6379 133.754 10.5832 133.924 10.523C134.093 10.4629 134.236 10.4109 134.35 10.3672C134.471 10.318 134.575 10.2934 134.662 10.2934C134.952 10.2934 135.204 10.4137 135.417 10.6543C135.63 10.8949 135.737 11.1629 135.737 11.4582C135.737 11.748 135.638 12.0051 135.441 12.2293C135.25 12.4535 134.998 12.6449 134.687 12.8035C134.381 12.9566 134.041 13.0715 133.67 13.148C133.303 13.2301 132.95 13.2711 132.611 13.2711C131.972 13.2711 131.384 13.1508 130.848 12.9102C130.312 12.6695 129.847 12.3387 129.453 11.9176C129.065 11.4965 128.761 10.9961 128.543 10.4164C128.324 9.83125 128.215 9.20234 128.215 8.52969Z" />
      <path d="M135.704 5.27305C135.704 4.83555 135.832 4.52383 136.09 4.33789C136.347 4.15195 136.661 4.05898 137.033 4.05898H142.258C142.63 4.05898 142.942 4.15195 143.193 4.33789C143.45 4.52383 143.579 4.83555 143.579 5.27305C143.579 5.71055 143.453 6.02226 143.202 6.2082C142.95 6.38867 142.636 6.47891 142.258 6.47891H140.979V11.7699C140.979 12.1145 140.858 12.4234 140.618 12.6969C140.377 12.9648 140.06 13.0988 139.666 13.0988C139.283 13.0988 138.969 12.9648 138.723 12.6969C138.477 12.4289 138.354 12.1199 138.354 11.7699V6.47891H137.033C136.65 6.47891 136.333 6.38867 136.081 6.2082C135.83 6.02226 135.704 5.71055 135.704 5.27305Z"/>
      <path d="M143.8 8.52969C143.8 7.88984 143.915 7.28555 144.145 6.7168C144.375 6.14805 144.692 5.64492 145.097 5.20742C145.507 4.76992 145.991 4.42539 146.548 4.17383C147.112 3.92227 147.724 3.79648 148.386 3.79648C149.026 3.79648 149.606 3.9168 150.125 4.15742C150.645 4.39805 151.088 4.72617 151.454 5.1418C151.826 5.55195 152.116 6.02774 152.323 6.56914C152.531 7.10508 152.635 7.66289 152.635 8.24258C152.635 8.6582 152.542 8.95352 152.356 9.12852C152.17 9.30352 151.853 9.39102 151.405 9.39102H146.622C146.644 9.83945 146.83 10.1949 147.18 10.4574C147.536 10.7199 148.05 10.8512 148.722 10.8512C149.056 10.8512 149.39 10.7965 149.723 10.6871C150.062 10.5723 150.393 10.4246 150.716 10.2441C150.995 10.0965 151.224 10.0254 151.405 10.0309C151.727 10.0309 151.99 10.1402 152.192 10.359C152.4 10.5723 152.504 10.8375 152.504 11.1547C152.504 11.4664 152.384 11.7535 152.143 12.016C151.902 12.2785 151.588 12.5027 151.2 12.6887C150.811 12.8746 150.371 13.0168 149.879 13.1152C149.387 13.2191 148.889 13.2711 148.386 13.2711C147.691 13.2711 147.06 13.148 146.491 12.902C145.928 12.6559 145.447 12.3195 145.047 11.893C144.654 11.4664 144.347 10.966 144.129 10.3918C143.91 9.81211 143.8 9.19141 143.8 8.52969ZM146.622 7.59453H150.01C149.999 7.40313 149.947 7.21172 149.854 7.02031C149.761 6.82891 149.636 6.65938 149.477 6.51172C149.318 6.35859 149.138 6.23828 148.936 6.15078C148.739 6.05781 148.534 6.01133 148.32 6.01133C148.096 6.01133 147.886 6.05781 147.689 6.15078C147.492 6.23828 147.314 6.35859 147.156 6.51172C147.002 6.65938 146.877 6.82891 146.778 7.02031C146.685 7.21172 146.633 7.40313 146.622 7.59453Z" />
      <path d="M153.218 11.8438C153.218 11.6961 153.229 11.5293 153.25 11.3434C153.272 11.1574 153.3 10.9551 153.332 10.7363L154.161 5.52734C154.248 5.01328 154.445 4.625 154.752 4.3625C155.063 4.09453 155.471 3.96055 155.974 3.96055C156.455 3.96055 156.832 4.06992 157.106 4.28867C157.379 4.50742 157.584 4.81914 157.721 5.22383L159.017 9.16953H159.05L160.387 5.27305C160.546 4.82461 160.767 4.49375 161.052 4.28047C161.341 4.06719 161.743 3.96055 162.257 3.96055C162.761 3.96055 163.143 4.10547 163.406 4.39531C163.668 4.67969 163.841 5.07891 163.923 5.59297L164.743 11.0316C164.765 11.2012 164.784 11.3516 164.8 11.4828C164.817 11.6086 164.825 11.7289 164.825 11.8438C164.825 12.2156 164.707 12.5191 164.472 12.7543C164.237 12.984 163.912 13.0988 163.496 13.0988C163.173 13.0988 162.897 13.0059 162.668 12.8199C162.438 12.6285 162.296 12.2977 162.241 11.8273L161.716 7.94727H161.683L160.494 11.6223C160.395 11.934 160.294 12.1883 160.19 12.3852C160.086 12.582 159.974 12.7352 159.854 12.8445C159.739 12.9484 159.613 13.0168 159.477 13.0496C159.345 13.0824 159.198 13.0988 159.034 13.0988C158.864 13.0988 158.714 13.0852 158.582 13.0578C158.457 13.0305 158.334 12.9648 158.213 12.8609C158.098 12.7516 157.984 12.5957 157.869 12.3934C157.759 12.191 157.642 11.9176 157.516 11.573L156.261 7.94727H156.228L155.834 11.6059C155.802 11.8957 155.744 12.1363 155.662 12.3277C155.58 12.5191 155.479 12.675 155.359 12.7953C155.244 12.9102 155.115 12.9895 154.973 13.0332C154.831 13.077 154.689 13.0988 154.547 13.0988C154.131 13.0988 153.806 12.9813 153.57 12.7461C153.335 12.5109 153.218 12.2102 153.218 11.8438Z" />
      <path d="M165.424 8.52969C165.424 7.86797 165.531 7.25 165.744 6.67578C165.957 6.09609 166.244 5.5957 166.605 5.17461C166.972 4.74805 167.401 4.41172 167.893 4.16562C168.385 3.91953 168.91 3.79648 169.468 3.79648C169.971 3.79648 170.398 3.87578 170.748 4.03437C171.103 4.1875 171.429 4.44453 171.724 4.80547C171.981 4.24766 172.388 3.96602 172.946 3.96055C173.34 3.96055 173.657 4.09453 173.898 4.3625C174.138 4.63047 174.259 4.93945 174.259 5.28945V11.7699C174.259 12.1145 174.138 12.4234 173.898 12.6969C173.657 12.9648 173.34 13.0988 172.946 13.0988C172.388 13.0988 171.981 12.8199 171.724 12.2621C171.434 12.623 171.111 12.8801 170.756 13.0332C170.4 13.1918 169.971 13.2711 169.468 13.2711C168.91 13.2711 168.385 13.148 167.893 12.902C167.401 12.6559 166.972 12.3195 166.605 11.893C166.244 11.4664 165.957 10.966 165.744 10.3918C165.531 9.81211 165.424 9.19141 165.424 8.52969ZM168.041 8.52969C168.041 9.18047 168.202 9.71367 168.525 10.1293C168.853 10.5449 169.29 10.7527 169.837 10.7527C170.384 10.7527 170.819 10.5449 171.141 10.1293C171.47 9.71367 171.634 9.18047 171.634 8.52969C171.634 7.88984 171.475 7.36211 171.158 6.94648C170.841 6.52539 170.395 6.31484 169.821 6.31484C169.285 6.31484 168.853 6.52266 168.525 6.93828C168.202 7.34844 168.041 7.87891 168.041 8.52969Z"/>
      <path d="M11.6071 29.7699V23.2402C11.6071 22.8465 11.7301 22.5512 11.9762 22.3543C12.2223 22.1574 12.5422 22.059 12.936 22.059H18.4075C18.8012 22.059 19.1211 22.1574 19.3672 22.3543C19.6133 22.5512 19.7364 22.8465 19.7364 23.2402V29.7699C19.7364 30.1145 19.6133 30.4234 19.3672 30.6969C19.1211 30.9648 18.8067 31.0988 18.4239 31.0988C18.0411 31.0988 17.7266 30.9648 17.4805 30.6969C17.2344 30.4289 17.1114 30.1199 17.1114 29.7699V24.4789H14.2239V29.7699C14.2239 30.1309 14.1008 30.4426 13.8547 30.7051C13.6086 30.9676 13.2942 31.0988 12.9114 31.0988C12.5286 31.0988 12.2141 30.9676 11.968 30.7051C11.7274 30.4426 11.6071 30.1309 11.6071 29.7699Z"/>
      <path d="M20.5895 26.5297C20.5895 25.8461 20.6989 25.2172 20.9176 24.643C21.1364 24.0633 21.4399 23.5656 21.8282 23.15C22.2219 22.7289 22.6868 22.398 23.2227 22.1574C23.7586 21.9168 24.352 21.7965 25.0028 21.7965C25.6426 21.7965 26.2305 21.9141 26.7665 22.1492C27.3079 22.3844 27.7727 22.7125 28.161 23.1336C28.5547 23.5492 28.8637 24.0469 29.0879 24.6266C29.3122 25.2008 29.4243 25.8352 29.4243 26.5297C29.4243 27.2023 29.3149 27.8285 29.0961 28.4082C28.8774 28.9824 28.5739 29.4828 28.1856 29.9094C27.8028 30.3359 27.3379 30.6695 26.7911 30.9102C26.2497 31.1508 25.6536 31.2711 25.0028 31.2711C24.352 31.2711 23.7559 31.1508 23.2145 30.9102C22.6731 30.6695 22.2083 30.3359 21.82 29.9094C21.4372 29.4828 21.1364 28.9824 20.9176 28.4082C20.6989 27.8285 20.5895 27.2023 20.5895 26.5297ZM23.2063 26.5297C23.2063 27.1805 23.3676 27.7137 23.6903 28.1293C24.0184 28.5449 24.4559 28.7527 25.0028 28.7527C25.5497 28.7527 25.9844 28.5449 26.3071 28.1293C26.6352 27.7137 26.7993 27.1805 26.7993 26.5297C26.7993 25.8898 26.6407 25.3621 26.3235 24.9465C26.0063 24.5254 25.5606 24.3148 24.9864 24.3148C24.4504 24.3148 24.0184 24.5227 23.6903 24.9383C23.3676 25.3484 23.2063 25.8789 23.2063 26.5297Z"/>
      <path d="M34.5512 29.2859C34.5512 28.9141 34.6551 28.6023 34.8629 28.3508C35.0708 28.0992 35.3825 27.9734 35.7981 27.9734C35.9895 27.9734 36.3313 28.1211 36.8235 28.4164C37.0586 28.5586 37.2747 28.6297 37.4715 28.6297C37.4825 28.6297 37.4907 28.6297 37.4961 28.6297C37.8571 28.6297 38.1086 28.4957 38.2508 28.2277C38.393 27.9598 38.4641 27.484 38.4641 26.8004V20.2789C38.4641 19.8086 38.5899 19.4477 38.8415 19.1961C39.0985 18.9445 39.4266 18.8188 39.8258 18.8188C40.2415 18.8188 40.5723 18.9418 40.8184 19.1879C41.0645 19.434 41.1875 19.7977 41.1875 20.2789V27.268C41.1875 28.4547 40.9797 29.357 40.5641 29.975C39.9954 30.8391 39 31.2711 37.5782 31.2711C37.1844 31.2711 36.7879 31.2191 36.3887 31.1152C35.995 31.0168 35.6504 30.8719 35.3551 30.6805C35.0653 30.4891 34.8575 30.2949 34.7317 30.098C34.6114 29.8957 34.5512 29.625 34.5512 29.2859Z"/>
      <path d="M42.2458 26.4805C42.2458 25.1461 42.634 24.0168 43.4106 23.0926C44.1926 22.1684 45.1551 21.7063 46.2981 21.7063C46.8122 21.7063 47.2387 21.7801 47.5778 21.9277C47.9223 22.0754 48.245 22.3379 48.5458 22.7152C48.6551 22.4801 48.8001 22.2914 48.9805 22.1492C49.2047 21.9687 49.47 21.8785 49.7762 21.8785C50.159 21.8785 50.4708 22.007 50.7114 22.2641C50.9575 22.5211 51.0805 22.8465 51.0805 23.2402V29.7207C51.0805 30.1145 50.9602 30.4426 50.7196 30.7051C50.479 30.9676 50.1645 31.0988 49.7762 31.0988C49.4973 31.0988 49.2458 31.0168 49.0215 30.8527C48.8028 30.6832 48.6442 30.4863 48.5458 30.2621C47.9989 30.9348 47.2497 31.2711 46.2981 31.2711C45.1661 31.2711 44.2063 30.8062 43.4188 29.8766C42.6368 28.9469 42.2458 27.8148 42.2458 26.4805ZM44.8708 26.4805C44.8708 27.1313 45.0293 27.6699 45.3465 28.0965C45.6637 28.523 46.104 28.7363 46.6672 28.7363C47.2251 28.7363 47.6626 28.5203 47.9797 28.0883C48.3024 27.6563 48.4637 27.1203 48.4637 26.4805C48.4637 25.8406 48.3133 25.3211 48.0126 24.9219C47.679 24.4734 47.2305 24.2492 46.6672 24.2492C46.1094 24.2492 45.6692 24.4625 45.3465 24.8891C45.0293 25.3102 44.8708 25.8406 44.8708 26.4805Z" />
      <path d="M52.0157 23.2156C52.0157 22.8383 52.1442 22.5211 52.4012 22.2641C52.6583 22.007 52.9645 21.8785 53.32 21.8785C53.6098 21.8785 53.8586 21.9469 54.0665 22.0836C54.2743 22.2148 54.4465 22.4773 54.5833 22.8711L55.9778 26.8824L57.4051 22.8711C57.5418 22.4883 57.7086 22.2285 57.9055 22.0918C58.1079 21.9496 58.3622 21.8785 58.6684 21.8785C59.0293 21.8785 59.3356 22.007 59.5872 22.2641C59.8442 22.5211 59.9727 22.8301 59.9727 23.191C59.9727 23.4152 59.918 23.6941 59.8086 24.0277C59.743 24.2301 59.6637 24.4434 59.5708 24.6676L57.4379 30.0242C57.3012 30.3578 57.1153 30.6203 56.8801 30.8117C56.6504 31.0031 56.3551 31.0988 55.9942 31.0988C55.6333 31.0988 55.3379 31.0086 55.1083 30.8281C54.884 30.6422 54.6981 30.3742 54.5504 30.0242L52.4176 24.6676C52.3192 24.3996 52.2454 24.1973 52.1961 24.0605C52.0758 23.716 52.0157 23.4344 52.0157 23.2156Z"/>
      <path d="M60.9325 26.4805C60.9325 25.1461 61.3208 24.0168 62.0973 23.0926C62.8794 22.1684 63.8419 21.7063 64.9848 21.7063C65.4989 21.7063 65.9254 21.7801 66.2645 21.9277C66.609 22.0754 66.9317 22.3379 67.2325 22.7152C67.3419 22.4801 67.4868 22.2914 67.6672 22.1492C67.8915 21.9687 68.1567 21.8785 68.4629 21.8785C68.8458 21.8785 69.1575 22.007 69.3981 22.2641C69.6442 22.5211 69.7672 22.8465 69.7672 23.2402V29.7207C69.7672 30.1145 69.6469 30.4426 69.4063 30.7051C69.1657 30.9676 68.8512 31.0988 68.4629 31.0988C68.184 31.0988 67.9325 31.0168 67.7083 30.8527C67.4895 30.6832 67.3309 30.4863 67.2325 30.2621C66.6856 30.9348 65.9364 31.2711 64.9848 31.2711C63.8528 31.2711 62.893 30.8062 62.1055 29.8766C61.3235 28.9469 60.9325 27.8148 60.9325 26.4805ZM63.5575 26.4805C63.5575 27.1313 63.7161 27.6699 64.0333 28.0965C64.3504 28.523 64.7907 28.7363 65.354 28.7363C65.9118 28.7363 66.3493 28.5203 66.6665 28.0883C66.9891 27.6563 67.1504 27.1203 67.1504 26.4805C67.1504 25.8406 67.0001 25.3211 66.6993 24.9219C66.3657 24.4734 65.9172 24.2492 65.354 24.2492C64.7961 24.2492 64.3559 24.4625 64.0333 24.8891C63.7161 25.3102 63.5575 25.8406 63.5575 26.4805Z" />
      <path d="M70.2594 29.2859C70.2594 28.8812 70.3715 28.5367 70.5958 28.2523C70.82 27.968 71.1344 27.8258 71.5391 27.8258C71.6977 27.8258 72.0942 27.9434 72.7286 28.1785C73.3684 28.4137 73.9508 28.5313 74.4758 28.5313C74.9571 28.5313 75.318 28.4191 75.5586 28.1949C75.8047 27.9707 75.9278 27.7027 75.9278 27.391C75.9278 26.9207 75.5668 26.5516 74.845 26.2836C74.7083 26.2289 74.2051 26.0594 73.3356 25.775C72.1708 25.4031 71.3997 24.9629 71.0223 24.4543C70.6504 23.9457 70.4645 23.3004 70.4645 22.5184C70.4645 21.266 70.8965 20.2898 71.7606 19.5898C72.5372 18.9664 73.527 18.6547 74.7301 18.6547C74.7411 18.6547 74.752 18.6547 74.7629 18.6547C75.8403 18.6547 76.6743 18.8215 77.2649 19.1551C77.861 19.4832 78.159 19.9207 78.159 20.4676C78.159 20.8395 78.0469 21.1484 77.8227 21.3945C77.5985 21.6406 77.3059 21.7637 76.945 21.7637C76.7317 21.7637 76.2969 21.6625 75.6407 21.4602C75.2688 21.3508 74.9325 21.2934 74.6317 21.2879C74.2598 21.2879 73.959 21.3809 73.7294 21.5668C73.4997 21.7527 73.3848 21.9906 73.3848 22.2805C73.3848 22.625 73.6938 22.9066 74.3118 23.1254C74.9297 23.3441 75.4739 23.5328 75.9442 23.6914C76.8411 23.9812 77.5055 24.3449 77.9375 24.7824C78.5446 25.3785 78.8481 26.1961 78.8481 27.2352C78.8481 28.5695 78.4051 29.5895 77.5192 30.2949C76.6989 30.9457 75.6188 31.2711 74.279 31.2711C73.3165 31.2711 72.4469 31.1125 71.6704 30.7953C70.7297 30.4125 70.2594 29.9094 70.2594 29.2859Z" />
      <path d="M79.3075 26.4805C79.3075 25.1242 79.7149 23.9895 80.5297 23.0762C81.3501 22.1629 82.4165 21.7063 83.729 21.7063C84.511 21.7063 85.17 21.8184 85.7059 22.0426C86.4551 22.3543 86.8297 22.8246 86.8297 23.4535C86.8297 23.8145 86.7258 24.1098 86.518 24.3395C86.3157 24.5691 86.0614 24.684 85.7551 24.684C85.5637 24.684 85.2958 24.6129 84.9512 24.4707C84.6067 24.323 84.2485 24.2492 83.8766 24.2492C83.2477 24.2492 82.7637 24.4625 82.4247 24.8891C82.0911 25.3102 81.9243 25.8406 81.9243 26.4805C81.9243 27.1313 82.0829 27.6699 82.4001 28.0965C82.7227 28.523 83.1657 28.7363 83.729 28.7363C84.1118 28.7363 84.4618 28.6871 84.779 28.5887C85.0961 28.4848 85.4215 28.3754 85.7551 28.2605C86.045 28.2605 86.2965 28.3836 86.5098 28.6297C86.7231 28.8758 86.8297 29.1465 86.8297 29.4418C86.8297 30.0379 86.4442 30.5082 85.6731 30.8527C85.0442 31.1316 84.3961 31.2711 83.729 31.2711C82.4165 31.2711 81.3501 30.8145 80.5297 29.9012C79.7149 28.9879 79.3075 27.8477 79.3075 26.4805Z" />
      <path d="M87.7321 29.7207V23.2402C87.7321 22.8574 87.8524 22.5348 88.093 22.2723C88.3336 22.0098 88.6481 21.8785 89.0364 21.8785C89.359 21.8785 89.6461 21.9687 89.8977 22.1492C90.1 22.2969 90.2504 22.4855 90.3489 22.7152C90.6059 22.4145 90.8684 22.1793 91.1364 22.0098C91.459 21.8074 91.8008 21.7035 92.1618 21.698C92.5227 21.698 92.8372 21.8293 93.1051 22.0918C93.3731 22.3543 93.5071 22.6797 93.5071 23.068C93.5071 23.4945 93.3567 23.8145 93.0559 24.0277C92.8645 24.1645 92.4708 24.3203 91.8747 24.4953C91.284 24.6648 90.8821 24.8809 90.6688 25.1434C90.4555 25.4059 90.3489 25.857 90.3489 26.4969V29.7207C90.3489 30.1145 90.2286 30.4426 89.9879 30.7051C89.7473 30.9676 89.4301 31.0988 89.0364 31.0988C88.6536 31.0988 88.3391 30.9703 88.093 30.7133C87.8524 30.4563 87.7321 30.1254 87.7321 29.7207Z"/>
      <path d="M93.909 19.5078C93.909 19.0703 94.0622 18.6984 94.3684 18.3922C94.6747 18.0859 95.0411 17.9328 95.4676 17.9328C95.9051 17.9328 96.2743 18.0832 96.5751 18.384C96.8813 18.6848 97.0344 19.0594 97.0344 19.5078C97.0344 19.9563 96.8813 20.3336 96.5751 20.6398C96.2743 20.9406 95.9051 21.091 95.4676 21.091C95.0301 21.091 94.661 20.9406 94.3602 20.6398C94.0594 20.3336 93.909 19.9563 93.909 19.5078ZM94.5243 30.7133C94.2836 30.4563 94.1633 30.1254 94.1633 29.7207V23.2402C94.1633 22.8574 94.2836 22.5348 94.5243 22.2723C94.7649 22.0098 95.0793 21.8785 95.4676 21.8785C95.8504 21.8785 96.1649 22.007 96.411 22.2641C96.6571 22.5211 96.7801 22.8465 96.7801 23.2402V29.7207C96.7801 30.1145 96.6598 30.4426 96.4192 30.7051C96.1786 30.9676 95.8614 31.0988 95.4676 31.0988C95.0848 31.0988 94.7704 30.9703 94.5243 30.7133Z"/>
      <path d="M97.7153 33.3875V23.2402C97.7153 22.8574 97.8356 22.5348 98.0762 22.2723C98.3168 22.0098 98.634 21.8785 99.0278 21.8785C99.3067 21.8785 99.5555 21.9633 99.7743 22.1328C99.993 22.2969 100.152 22.491 100.25 22.7152C100.797 22.0426 101.549 21.7063 102.506 21.7063C103.649 21.7063 104.609 22.1684 105.385 23.0926C106.162 24.0168 106.55 25.1461 106.55 26.4805C106.55 27.8258 106.162 28.9605 105.385 29.8848C104.609 30.809 103.649 31.2711 102.506 31.2711C101.981 31.2711 101.56 31.2055 101.243 31.0742C100.931 30.9484 100.63 30.768 100.34 30.5328V33.3875C100.34 33.7812 100.22 34.1094 99.9793 34.3719C99.7387 34.6344 99.4215 34.7656 99.0278 34.7656C98.645 34.7656 98.3305 34.6371 98.0844 34.3801C97.8383 34.123 97.7153 33.7922 97.7153 33.3875ZM100.34 26.4805C100.34 27.1313 100.499 27.6699 100.816 28.0965C101.133 28.523 101.573 28.7363 102.137 28.7363C102.695 28.7363 103.132 28.5203 103.449 28.0883C103.772 27.6563 103.933 27.1203 103.933 26.4805C103.933 25.8406 103.783 25.3211 103.482 24.9219C103.148 24.4734 102.7 24.2492 102.137 24.2492C101.579 24.2492 101.139 24.4625 100.816 24.8891C100.499 25.3102 100.34 25.8406 100.34 26.4805Z" />
      <path d="M107.297 23.191C107.297 22.7754 107.414 22.4691 107.649 22.2723C107.884 22.0754 108.226 21.977 108.675 21.977H108.978V20.2461C108.978 19.8523 109.098 19.5242 109.339 19.2617C109.58 18.9992 109.897 18.868 110.291 18.868C110.673 18.868 110.985 18.9992 111.226 19.2617C111.472 19.5188 111.595 19.8469 111.595 20.2461V21.977H112.317C112.754 21.977 113.093 22.0754 113.334 22.2723C113.575 22.4691 113.695 22.7754 113.695 23.191C113.695 23.6066 113.572 23.9156 113.326 24.118C113.08 24.3148 112.743 24.4133 112.317 24.4133H111.595V29.7207C111.595 30.1145 111.475 30.4426 111.234 30.7051C110.993 30.9676 110.679 31.0988 110.291 31.0988C109.908 31.0988 109.593 30.9703 109.347 30.7133C109.101 30.4563 108.978 30.1254 108.978 29.7207V24.4133H108.675C108.237 24.4133 107.898 24.3176 107.657 24.1262C107.417 23.9293 107.297 23.6176 107.297 23.191Z"/>
      <path d="M119.101 29.7699V23.3223C119.101 22.9285 119.221 22.6004 119.462 22.3379C119.708 22.0754 120.022 21.9441 120.405 21.9441C120.788 21.9441 121.102 22.0754 121.348 22.3379C121.595 22.6004 121.718 22.9121 121.718 23.273V27.0875L124.572 23.1008C124.742 22.8656 124.895 22.6742 125.032 22.5266C125.174 22.3734 125.308 22.2559 125.434 22.1738C125.565 22.0863 125.696 22.0262 125.827 21.9934C125.959 21.9605 126.101 21.9441 126.254 21.9441C126.598 21.9441 126.88 22.0727 127.099 22.3297C127.323 22.5867 127.435 22.9012 127.435 23.273V29.7699C127.435 30.1145 127.309 30.4234 127.058 30.6969C126.812 30.9648 126.5 31.0988 126.123 31.0988C125.74 31.0988 125.425 30.9648 125.179 30.6969C124.933 30.4289 124.81 30.1199 124.81 29.7699V26.1441L122.07 29.893C121.868 30.1609 121.693 30.377 121.545 30.541C121.403 30.6996 121.266 30.8227 121.135 30.9102C121.009 30.9922 120.884 31.0441 120.758 31.066C120.638 31.0879 120.504 31.0988 120.356 31.0988C119.94 31.0988 119.626 30.9703 119.413 30.7133C119.205 30.4563 119.101 30.1418 119.101 29.7699Z" />
      <path d="M131.865 20.1969C131.865 19.3437 132.335 18.9172 133.276 18.9172H139.059C140 18.9172 140.47 19.3437 140.47 20.1969C140.47 20.5797 140.347 20.8859 140.101 21.1156C139.855 21.3453 139.507 21.4602 139.059 21.4602H137.525V29.6387C137.525 30.109 137.399 30.4699 137.148 30.7215C136.896 30.973 136.571 31.0988 136.172 31.0988C135.756 31.0988 135.425 30.9758 135.179 30.7297C134.933 30.4836 134.81 30.1199 134.81 29.6387V21.4602H133.276C132.827 21.4602 132.48 21.348 132.234 21.1238C131.988 20.8996 131.865 20.5906 131.865 20.1969Z" />
      <path d="M140.478 23.1008C140.478 22.718 140.604 22.4199 140.856 22.2066C141.107 21.9879 141.405 21.8785 141.75 21.8785C142.39 21.8785 142.838 22.2094 143.095 22.8711L144.645 26.9152L146.106 23.3059C146.286 22.8465 146.469 22.5102 146.655 22.2969C146.901 22.018 147.194 21.8785 147.533 21.8785C147.938 21.8785 148.263 21.9961 148.509 22.2312C148.755 22.4664 148.878 22.7918 148.878 23.2074C148.878 23.366 148.845 23.541 148.78 23.7324C148.72 23.9184 148.646 24.1289 148.558 24.3641L144.678 33.5023C144.487 33.9508 144.323 34.2488 144.186 34.3965C143.962 34.6426 143.65 34.7656 143.251 34.7656C142.835 34.7656 142.504 34.6262 142.258 34.3473C142.056 34.1121 141.955 33.8578 141.955 33.5844C141.955 33.2727 142.1 32.7859 142.389 32.1242L143.267 30.1309L141.028 24.7496C140.869 24.3777 140.738 24.0441 140.634 23.7488C140.53 23.4535 140.478 23.2375 140.478 23.1008Z"/>
      <path d="M149.871 33.3875V23.2402C149.871 22.8574 149.991 22.5348 150.232 22.2723C150.472 22.0098 150.79 21.8785 151.183 21.8785C151.462 21.8785 151.711 21.9633 151.93 22.1328C152.148 22.2969 152.307 22.491 152.406 22.7152C152.952 22.0426 153.704 21.7063 154.661 21.7063C155.804 21.7063 156.764 22.1684 157.541 23.0926C158.317 24.0168 158.706 25.1461 158.706 26.4805C158.706 27.8258 158.317 28.9605 157.541 29.8848C156.764 30.809 155.804 31.2711 154.661 31.2711C154.136 31.2711 153.715 31.2055 153.398 31.0742C153.086 30.9484 152.786 30.768 152.496 30.5328V33.3875C152.496 33.7812 152.375 34.1094 152.135 34.3719C151.894 34.6344 151.577 34.7656 151.183 34.7656C150.8 34.7656 150.486 34.6371 150.24 34.3801C149.994 34.123 149.871 33.7922 149.871 33.3875ZM152.496 26.4805C152.496 27.1313 152.654 27.6699 152.972 28.0965C153.289 28.523 153.729 28.7363 154.292 28.7363C154.85 28.7363 155.288 28.5203 155.605 28.0883C155.927 27.6563 156.089 27.1203 156.089 26.4805C156.089 25.8406 155.938 25.3211 155.638 24.9219C155.304 24.4734 154.856 24.2492 154.292 24.2492C153.734 24.2492 153.294 24.4625 152.972 24.8891C152.654 25.3102 152.496 25.8406 152.496 26.4805Z" />
      <path d="M159.436 26.4805C159.436 25.168 159.865 24.0441 160.723 23.109C161.588 22.1738 162.687 21.7063 164.021 21.7063C165.263 21.7063 166.293 22.1656 167.114 23.0844C167.885 23.9594 168.27 24.9957 168.27 26.1934C168.27 26.6309 168.169 26.9344 167.967 27.1039C167.765 27.2734 167.442 27.3582 166.999 27.3582H162.257C162.257 27.7191 162.397 28.0309 162.676 28.2934C163.048 28.6543 163.608 28.8348 164.357 28.8348C164.839 28.8348 165.369 28.6953 165.949 28.4164C166.534 28.132 166.9 27.9926 167.048 27.998C167.36 27.998 167.62 28.102 167.827 28.3098C168.035 28.5121 168.139 28.7883 168.139 29.1383C168.139 29.7562 167.715 30.2676 166.868 30.6723C166.025 31.0715 165.077 31.2711 164.021 31.2711C162.654 31.2711 161.547 30.8145 160.699 29.9012C159.857 28.9879 159.436 27.8477 159.436 26.4805ZM162.257 25.5371H165.654C165.654 25.1762 165.5 24.8344 165.194 24.5117C164.855 24.1344 164.448 23.9457 163.972 23.9457C163.966 23.9457 163.961 23.9457 163.956 23.9457C163.485 23.9457 163.083 24.1262 162.75 24.4871C162.422 24.8426 162.257 25.1926 162.257 25.5371Z" />
      <path d="M168.73 29.2859C168.73 28.8812 168.842 28.5367 169.066 28.2523C169.29 27.968 169.605 27.8258 170.009 27.8258C170.168 27.8258 170.565 27.9434 171.199 28.1785C171.839 28.4137 172.421 28.5313 172.946 28.5313C173.427 28.5313 173.788 28.4191 174.029 28.1949C174.275 27.9707 174.398 27.7027 174.398 27.391C174.398 26.9207 174.037 26.5516 173.315 26.2836C173.179 26.2289 172.675 26.0594 171.806 25.775C170.641 25.4031 169.87 24.9629 169.493 24.4543C169.121 23.9457 168.935 23.3004 168.935 22.5184C168.935 21.266 169.367 20.2898 170.231 19.5898C171.007 18.9664 171.997 18.6547 173.2 18.6547C173.211 18.6547 173.222 18.6547 173.233 18.6547C174.311 18.6547 175.145 18.8215 175.735 19.1551C176.331 19.4832 176.629 19.9207 176.629 20.4676C176.629 20.8395 176.517 21.1484 176.293 21.3945C176.069 21.6406 175.776 21.7637 175.415 21.7637C175.202 21.7637 174.767 21.6625 174.111 21.4602C173.739 21.3508 173.403 21.2934 173.102 21.2879C172.73 21.2879 172.429 21.3809 172.2 21.5668C171.97 21.7527 171.855 21.9906 171.855 22.2805C171.855 22.625 172.164 22.9066 172.782 23.1254C173.4 23.3441 173.944 23.5328 174.415 23.6914C175.311 23.9812 175.976 24.3449 176.408 24.7824C177.015 25.3785 177.318 26.1961 177.318 27.2352C177.318 28.5695 176.875 29.5895 175.99 30.2949C175.169 30.9457 174.089 31.2711 172.749 31.2711C171.787 31.2711 170.917 31.1125 170.141 30.7953C169.2 30.4125 168.73 29.9094 168.73 29.2859Z" />
      <path d="M177.778 26.4805C177.778 25.1242 178.185 23.9895 179 23.0762C179.82 22.1629 180.887 21.7063 182.199 21.7063C182.981 21.7063 183.64 21.8184 184.176 22.0426C184.925 22.3543 185.3 22.8246 185.3 23.4535C185.3 23.8145 185.196 24.1098 184.988 24.3395C184.786 24.5691 184.532 24.684 184.225 24.684C184.034 24.684 183.766 24.6129 183.422 24.4707C183.077 24.323 182.719 24.2492 182.347 24.2492C181.718 24.2492 181.234 24.4625 180.895 24.8891C180.561 25.3102 180.395 25.8406 180.395 26.4805C180.395 27.1313 180.553 27.6699 180.87 28.0965C181.193 28.523 181.636 28.7363 182.199 28.7363C182.582 28.7363 182.932 28.6871 183.249 28.5887C183.566 28.4848 183.892 28.3754 184.225 28.2605C184.515 28.2605 184.767 28.3836 184.98 28.6297C185.193 28.8758 185.3 29.1465 185.3 29.4418C185.3 30.0379 184.915 30.5082 184.143 30.8527C183.515 31.1316 182.866 31.2711 182.199 31.2711C180.887 31.2711 179.82 30.8145 179 29.9012C178.185 28.9879 177.778 27.8477 177.778 26.4805Z" />
      <path d="M186.202 29.7207V23.2402C186.202 22.8574 186.323 22.5348 186.563 22.2723C186.804 22.0098 187.118 21.8785 187.507 21.8785C187.829 21.8785 188.116 21.9687 188.368 22.1492C188.57 22.2969 188.721 22.4855 188.819 22.7152C189.076 22.4145 189.339 22.1793 189.607 22.0098C189.929 21.8074 190.271 21.7035 190.632 21.698C190.993 21.698 191.307 21.8293 191.575 22.0918C191.843 22.3543 191.977 22.6797 191.977 23.068C191.977 23.4945 191.827 23.8145 191.526 24.0277C191.335 24.1645 190.941 24.3203 190.345 24.4953C189.754 24.6648 189.352 24.8809 189.139 25.1434C188.926 25.4059 188.819 25.857 188.819 26.4969V29.7207C188.819 30.1145 188.699 30.4426 188.458 30.7051C188.218 30.9676 187.9 31.0988 187.507 31.0988C187.124 31.0988 186.809 30.9703 186.563 30.7133C186.323 30.4563 186.202 30.1254 186.202 29.7207Z"/>
      <path d="M192.379 19.5078C192.379 19.0703 192.532 18.6984 192.839 18.3922C193.145 18.0859 193.511 17.9328 193.938 17.9328C194.375 17.9328 194.745 18.0832 195.045 18.384C195.352 18.6848 195.505 19.0594 195.505 19.5078C195.505 19.9563 195.352 20.3336 195.045 20.6398C194.745 20.9406 194.375 21.091 193.938 21.091C193.5 21.091 193.131 20.9406 192.831 20.6398C192.53 20.3336 192.379 19.9563 192.379 19.5078ZM192.995 30.7133C192.754 30.4563 192.634 30.1254 192.634 29.7207V23.2402C192.634 22.8574 192.754 22.5348 192.995 22.2723C193.235 22.0098 193.55 21.8785 193.938 21.8785C194.321 21.8785 194.635 22.007 194.881 22.2641C195.127 22.5211 195.25 22.8465 195.25 23.2402V29.7207C195.25 30.1145 195.13 30.4426 194.89 30.7051C194.649 30.9676 194.332 31.0988 193.938 31.0988C193.555 31.0988 193.241 30.9703 192.995 30.7133Z"/>
      <path d="M196.186 33.3875V23.2402C196.186 22.8574 196.306 22.5348 196.547 22.2723C196.787 22.0098 197.104 21.8785 197.498 21.8785C197.777 21.8785 198.026 21.9633 198.245 22.1328C198.463 22.2969 198.622 22.491 198.72 22.7152C199.267 22.0426 200.019 21.7063 200.976 21.7063C202.119 21.7063 203.079 22.1684 203.856 23.0926C204.632 24.0168 205.02 25.1461 205.02 26.4805C205.02 27.8258 204.632 28.9605 203.856 29.8848C203.079 30.809 202.119 31.2711 200.976 31.2711C200.451 31.2711 200.03 31.2055 199.713 31.0742C199.401 30.9484 199.1 30.768 198.811 30.5328V33.3875C198.811 33.7812 198.69 34.1094 198.45 34.3719C198.209 34.6344 197.892 34.7656 197.498 34.7656C197.115 34.7656 196.801 34.6371 196.555 34.3801C196.309 34.123 196.186 33.7922 196.186 33.3875ZM198.811 26.4805C198.811 27.1313 198.969 27.6699 199.286 28.0965C199.604 28.523 200.044 28.7363 200.607 28.7363C201.165 28.7363 201.602 28.5203 201.92 28.0883C202.242 27.6563 202.404 27.1203 202.404 26.4805C202.404 25.8406 202.253 25.3211 201.952 24.9219C201.619 24.4734 201.17 24.2492 200.607 24.2492C200.049 24.2492 199.609 24.4625 199.286 24.8891C198.969 25.3102 198.811 25.8406 198.811 26.4805Z" />
      <path d="M205.767 23.191C205.767 22.7754 205.884 22.4691 206.12 22.2723C206.355 22.0754 206.697 21.977 207.145 21.977H207.449V20.2461C207.449 19.8523 207.569 19.5242 207.809 19.2617C208.05 18.9992 208.367 18.868 208.761 18.868C209.144 18.868 209.456 18.9992 209.696 19.2617C209.942 19.5188 210.065 19.8469 210.065 20.2461V21.977H210.787C211.225 21.977 211.564 22.0754 211.804 22.2723C212.045 22.4691 212.165 22.7754 212.165 23.191C212.165 23.6066 212.042 23.9156 211.796 24.118C211.55 24.3148 211.214 24.4133 210.787 24.4133H210.065V29.7207C210.065 30.1145 209.945 30.4426 209.704 30.7051C209.464 30.9676 209.149 31.0988 208.761 31.0988C208.378 31.0988 208.064 30.9703 207.818 30.7133C207.572 30.4563 207.449 30.1254 207.449 29.7207V24.4133H207.145C206.707 24.4133 206.368 24.3176 206.128 24.1262C205.887 23.9293 205.767 23.6176 205.767 23.191Z"/>
      <rect width="3" height="32" rx="1.5" fill="#1976D2" fill-opacity="0.1"/>
    </svg>
    <svg id="add-user" viewBox="0 0 24 24" fill="none">
      <!-- <rect width="24" height="24" rx="4.02116" fill="#EEF7EE"/> -->
      <g clip-path="url(#clip0_603_7722)">
      <path d="M12.5 10C12.5 8.895 11.605 8 10.5 8C9.395 8 8.5 8.895 8.5 10C8.5 11.105 9.395 12 10.5 12C11.605 12 12.5 11.105 12.5 10ZM13.5 11V12H15V13.5H16V12H17.5V11H16V9.5H15V11H13.5ZM6.5 15V16H14.5V15C14.5 13.67 11.835 13 10.5 13C9.165 13 6.5 13.67 6.5 15Z" fill="#4CAF50"/>
      </g>
      <defs>
      <clipPath id="clip0_603_7722">
      <rect width="12" height="12" fill="white" transform="translate(6 6)"/>
      </clipPath>
      </defs>
    </svg>
    <svg id="add-task" viewBox="0 0 24 24">
      <path d="M18 4H2C0.89 4 0 4.9 0 6V18C0 19.1 0.89 20 2 20H18C19.1 20 20 19.1 20 18V6C20 4.9 19.11 4 18 4ZM18 18H2V8H18V18ZM16 17H10V15H16V17ZM5.5 17L4.09 15.59L6.67 13L4.08 10.41L5.5 9L9.5 13L5.5 17Z"/>
      <rect x="13" y="20" width="2" height="11" transform="rotate(-90 13 20)" fill="white"/>
      <rect x="18" y="13" width="2" height="11" fill="white"/>
      <rect x="18" y="15" width="2" height="8"/>
      <rect x="15" y="20" width="2" height="8" transform="rotate(-90 15 20)"/>
    </svg>
    <svg id="decline-user" viewBox="0 0 24 24" fill="none">
      <!-- <rect width="24" height="24" rx="4.02116" fill="#FFEEEE"/> -->
      <g clip-path="url(#clip0_603_7715)">
      <path d="M12.998 10C12.998 8.895 12.103 8 10.998 8C9.89305 8 8.99805 8.895 8.99805 10C8.99805 11.105 9.89305 12 10.998 12C12.103 12 12.998 11.105 12.998 10ZM14.498 11V12H17.498V11H14.498ZM6.99805 15V16H14.998V15C14.998 13.67 12.333 13 10.998 13C9.66305 13 6.99805 13.67 6.99805 15Z" fill="#FF5252"/>
      </g>
      <defs>
      <clipPath id="clip0_603_7715">
      <rect width="12" height="12" fill="white" transform="translate(6 6)"/>
      </clipPath>
      </defs>
    </svg>
    <svg id="edit" viewBox="0 0 24 24" fill="none">
      <rect width="24" height="24" rx="4.5" fill="#E9F5FE"/>
      <g clip-path="url(#clip0_603_7699)">
      <g clip-path="url(#clip1_603_7699)">
      <path d="M5.99902 15.4989V17.9992H8.49933L15.8736 10.625L13.3733 8.12469L5.99902 15.4989ZM17.8071 8.69142C18.0672 8.43139 18.0672 8.01134 17.8071 7.75131L16.2469 6.19112C15.9869 5.93109 15.5669 5.93109 15.3068 6.19112L14.0867 7.41127L16.587 9.91157L17.8071 8.69142V8.69142Z" fill="#2196F3"/>
      </g>
      </g>
      <defs>
      <clipPath id="clip0_603_7699">
      <rect width="16" height="16" fill="white" transform="translate(4 4)"/>
      </clipPath>
      <clipPath id="clip1_603_7699">
      <rect width="16.002" height="16.002" fill="white" transform="translate(3.99902 3.99805)"/>
      </clipPath>
      </defs>
    </svg>
    <svg id="edit-content" viewBox="0 0 24 24">
      <g clip-path="url(#clip0_603_7668)">
      <path d="M19 2H14.82C14.4 0.84 13.3 0 12 0C10.7 0 9.6 0.84 9.18 2H5C3.9 2 3 2.9 3 4V20C3 21.1 3.9 22 5 22H19C20.1 22 21 21.1 21 20V4C21 2.9 20.1 2 19 2ZM12 2C12.55 2 13 2.45 13 3C13 3.55 12.55 4 12 4C11.45 4 11 3.55 11 3C11 2.45 11.45 2 12 2ZM19 20H5V4H7V7H17V4H19V20Z"/>
      <path fill-rule="evenodd" clip-rule="evenodd" d="M23.9999 6.69141V23.9999H6.69141L23.9999 6.69141Z" fill="white"/>
      <path d="M12 21.5003V24H14.4997L21.872 16.6277L19.3723 14.128L12 21.5003ZM23.805 14.6946C24.065 14.4347 24.065 14.0147 23.805 13.7548L22.2452 12.195C21.9853 11.935 21.5653 11.935 21.3054 12.195L20.0855 13.4148L22.5852 15.9145L23.805 14.6946V14.6946Z"/>
      <path fill-rule="evenodd" clip-rule="evenodd" d="M23.9999 6.69141V23.9999H6.69141L23.9999 6.69141Z" fill="white"/>
      <path d="M12 21.5003V24H14.4997L21.872 16.6277L19.3723 14.128L12 21.5003ZM23.805 14.6946C24.065 14.4347 24.065 14.0147 23.805 13.7548L22.2452 12.195C21.9853 11.935 21.5653 11.935 21.3054 12.195L20.0855 13.4148L22.5852 15.9145L23.805 14.6946V14.6946Z"/>
      </g>
      <defs>
      <clipPath id="clip0_603_7668">
      <rect width="24" height="24" fill="white"/>
      </clipPath>
      </defs>
    </svg>
    <svg id="edit-task" viewBox="0 0 24 24">
      <path d="M18 4H2C0.89 4 0 4.9 0 6V18C0 19.1 0.89 20 2 20H18C19.1 20 20 19.1 20 18V6C20 4.9 19.11 4 18 4ZM18 18H2V8H18V18ZM16 17H10V15H16V17ZM5.5 17L4.09 15.59L6.67 13L4.08 10.41L5.5 9L9.5 13L5.5 17Z"/>
      <path fill-rule="evenodd" clip-rule="evenodd" d="M23.9999 6.69141V23.9999H6.69141L23.9999 6.69141Z" fill="white"/>
      <path d="M12 21.5003V24H14.4997L21.872 16.6277L19.3723 14.128L12 21.5003ZM23.805 14.6946C24.065 14.4347 24.065 14.0147 23.805 13.7548L22.2452 12.195C21.9853 11.935 21.5653 11.935 21.3054 12.195L20.0855 13.4148L22.5852 15.9145L23.805 14.6946V14.6946Z"/>
    </svg>
    <svg id="check-mark" viewBox="0 0 24 24" fill="none">
      <path d="M10.0001 14.7799L7.2201 11.9999L6.27344 12.9399L10.0001 16.6666L18.0001 8.66656L17.0601 7.72656L10.0001 14.7799Z"/>
    </svg>
    <svg id="id-card" viewBox="0 0 24 24" fill="none">
      <path d="M21.6 3.5H15.6C15.6 3.5 14.52 3.5 13.2 3.5L10.8 3.50004C9.48 3.50004 10.8 3.50098 9.6 3.50049C8.4 3.5 8.4 3.5 8.4 3.5H2.4C1.08 3.5 0 4.58 0 5.9V19.1C0 20.42 1.08 21.5 2.4 21.5H21.6C22.92 21.5 24 20.42 24 19.1V5.9C24 4.58 22.92 3.5 21.6 3.5ZM8.4 8.6C9.396 8.6 10.2 9.404 10.2 10.4C10.2 11.396 9.396 12.2 8.4 12.2C7.404 12.2 6.6 11.396 6.6 10.4C6.6 9.404 7.404 8.6 8.4 8.6ZM12 15.8H4.8V14.9C4.8 13.7 7.2 13.1 8.4 13.1C9.6 13.1 12 13.7 12 14.9V15.8ZM20.4 14.9H14.4V13.1H20.4V14.9ZM20.4 11.3H14.4V9.5H20.4V11.3Z" fill="#89B9E9"/>
    </svg>
    <svg id="refresh" viewBox="0 0 24 24" fill="none">
      <path d="M0 4C0 1.79086 1.79086 0 4 0H20C22.2091 0 24 1.79086 24 4V20C24 22.2091 22.2091 24 20 24H4C1.79086 24 0 22.2091 0 20V4Z" fill="#2196F3"/>
      <g clip-path="url(#clip0_603_7694)">
      <path d="M15.7662 8.23366C14.7995 7.26699 13.4729 6.66699 11.9995 6.66699C9.05285 6.66699 6.67285 9.05366 6.67285 12.0003C6.67285 14.947 9.05285 17.3337 11.9995 17.3337C14.4862 17.3337 16.5595 15.6337 17.1529 13.3337H15.7662C15.2195 14.887 13.7395 16.0003 11.9995 16.0003C9.79285 16.0003 7.99952 14.207 7.99952 12.0003C7.99952 9.79366 9.79285 8.00033 11.9995 8.00033C13.1062 8.00033 14.0929 8.46033 14.8129 9.18699L12.6662 11.3337H17.3329V6.66699L15.7662 8.23366Z" fill="white"/>
      </g>
      <defs>
      <clipPath id="clip0_603_7694">
      <rect width="16" height="16" fill="white" transform="translate(4 4)"/>
      </clipPath>
      </defs>
    </svg>
  </defs>
</svg>